Coordinates
version=1
nRows=17
nColumns=40
inDegrees=yes

Units are S.I. units (second, meters, Newtons, ...)
If the header above contains a line with 'inDegrees', this indicates whether rotational values are in degrees (yes) or radians (no).

endheader
time	pelvis_tilt	pelvis_list	pelvis_rotation	pelvis_tx	pelvis_ty	pelvis_tz	hip_flexion_r	hip_adduction_r	hip_rotation_r	knee_angle_r	knee_angle_r_beta	ankle_angle_r	subtalar_angle_r	mtp_angle_r	hip_flexion_l	hip_adduction_l	hip_rotation_l	knee_angle_l	knee_angle_l_beta	ankle_angle_l	subtalar_angle_l	mtp_angle_l	lumbar_extension	lumbar_bending	lumbar_rotation	arm_flex_r	arm_add_r	arm_rot_r	elbow_flex_r	pro_sup_r	wrist_flex_r	wrist_dev_r	arm_flex_l	arm_add_l	arm_rot_l	elbow_flex_l	pro_sup_l	wrist_flex_l	wrist_dev_l
      7.78333333	    -13.88428839	     -8.40823947	      2.28036635	     -0.37037964	      1.14177618	      0.04734396	     75.05537226	     -5.37898380	     -4.42206089	    108.60291257	      1.89547840	     -0.24901451	     -7.94028866	      0.00000000	     61.17105950	     -9.35469182	     11.64577515	     50.78745667	      0.88640834	    -11.45066342	     -9.07829909	      0.00000000	    -43.10540106	      7.78045670	      9.22353146	     89.87183818	    -15.59012609	     38.16117859	     21.73943806	     87.82508017	      0.00000000	      0.00000000	     89.20272086	     -1.62290609	     34.70794296	     16.43450962	     87.19979903	      0.00000000	      0.00000000
      7.79166667	    -13.91617545	     -8.63312832	      2.43340471	     -0.36994545	      1.14153020	      0.04741574	     76.59235490	     -5.73871071	     -4.40846928	    110.14605892	      1.92241139	      1.59706908	     -7.21276492	      0.00000000	     59.65406916	     -9.62920299	     11.68258868	     49.08597420	      0.85671187	    -12.06309151	     -9.02598149	      0.00000000	    -43.01997964	      8.12518764	      9.25145030	     89.87225734	    -15.50485077	     38.33536493	     21.67277177	     87.80503522	      0.00000000	      0.00000000	     89.19200260	     -1.66656341	     34.82056927	     16.23839751	     87.25435365	      0.00000000	      0.00000000
      7.80000000	    -14.01274497	     -8.91349265	      2.63507197	     -0.36965375	      1.14128077	      0.04744780	     78.09896742	     -6.06967663	     -4.46478005	    111.35369447	      1.94348860	      2.09350572	     -6.31873878	      0.00000000	     58.32801043	     -9.89784909	     11.78004336	     47.60012346	      0.83077888	    -12.67946803	     -8.93510209	      0.00000000	    -42.88253985	      8.54345265	      9.28804408	     89.87171739	    -15.50092324	     38.79802767	     21.68799484	     87.72190941	      0.00000000	      0.00000000	     89.20668225	     -1.63607798	     34.99074833	     15.95608999	     87.10073036	      0.00000000	      0.00000000
      7.80833333	    -13.97184596	     -9.24580540	      2.78319999	     -0.36915530	      1.14138676	      0.04766188	     79.44859006	     -6.33431827	     -4.59472265	    112.50106224	      1.96351395	      2.64890680	     -6.11999778	      0.00000000	     56.90994410	    -10.31038039	     11.84611439	     46.28663786	      0.80785423	    -12.83021909	     -8.79403355	      0.00000000	    -42.90681642	      8.95026508	      9.42911392	     89.87058747	    -15.42973637	     38.73582778	     21.59654831	     87.76045159	      0.00000000	      0.00000000	     89.16360023	     -1.62918661	     34.98960147	     15.85115867	     87.17548802	      0.00000000	      0.00000000
      7.81666667	    -13.93647376	     -9.41330251	      3.05321777	     -0.36882369	      1.14156934	      0.04761944	     80.77660603	     -6.83197491	     -4.61550360	    113.52619301	      1.98140586	      3.47122931	     -5.56759323	      0.00000000	     55.60876314	    -10.54121333	     11.75495391	     45.15299132	      0.78806837	    -13.47186292	     -8.30245701	      0.00000000	    -42.92321731	      9.29892603	      9.36087054	     89.87064950	    -15.40445435	     39.02201625	     21.67556588	     87.67647313	      0.00000000	      0.00000000	     89.17553257	     -1.63015146	     35.14798596	     15.67352128	     87.09858427	      0.00000000	      0.00000000
      7.82500000	    -13.82306612	     -9.50103012	      3.39636525	     -0.36825898	      1.14167611	      0.04750962	     81.84047080	     -7.45163447	     -4.58114787	    114.37037229	      1.99613956	      4.67243497	     -4.73762231	      0.00000000	     54.35636551	    -10.67477735	     11.60205768	     44.37765702	      0.77453623	    -13.65093560	     -7.95639792	      0.00000000	    -42.97187536	      9.61042292	      9.18055839	     89.86981592	    -15.33644679	     39.21900866	     21.53393805	     87.51864468	      0.00000000	      0.00000000	     89.17633156	     -1.59034110	     35.21889619	     15.39664146	     86.81395183	      0.00000000	      0.00000000
      7.83333333	    -13.90581750	     -9.73023307	      3.51683192	     -0.36813789	      1.14208108	      0.04765308	     83.20479229	     -7.58854144	     -4.59791787	    114.86883848	      2.00483944	      5.09287215	     -4.62836948	      0.00000000	     53.34451714	    -10.98833660	     11.60630606	     43.63702560	      0.76160977	    -13.71117385	     -7.82927281	      0.00000000	    -42.92789194	      9.91321190	      9.26054426	     89.86920785	    -15.32174814	     39.09456633	     21.58682825	     87.62936809	      0.00000000	      0.00000000	     89.12595149	     -1.64022150	     35.19224221	     15.52937761	     86.99264735	      0.00000000	      0.00000000
      7.84166667	    -13.83546139	     -9.92383296	      3.63972520	     -0.36786750	      1.14222742	      0.04800361	     84.29815976	     -7.94596586	     -4.78391248	    115.31552099	      2.01263552	      5.27090776	     -4.62492632	      0.00000000	     52.52352124	    -11.35289116	     11.47597539	     43.47100930	      0.75871224	    -13.82398629	     -7.74639801	      0.00000000	    -43.00048177	     10.14586815	      9.32436341	     89.86701186	    -15.31886711	     39.04859047	     21.64633852	     87.64789685	      0.00000000	      0.00000000	     89.11531004	     -1.67416929	     35.17516759	     15.53636304	     87.02206228	      0.00000000	      0.00000000
      7.85000000	    -14.05944794	     -9.97040938	      3.94266470	     -0.36794628	      1.14238386	      0.04800971	     85.53033866	     -8.44184763	     -4.81555725	    115.43552492	      2.01472998	      6.01621503	     -4.61952484	      0.00000000	     51.92692741	    -11.50953521	     11.11576795	     43.09965932	      0.75223096	    -13.99791196	     -6.64742372	      0.00000000	    -42.76419159	     10.39459320	      9.08707045	     89.86640486	    -15.27784430	     39.12535397	     21.54941890	     87.74036258	      0.00000000	      0.00000000	     89.05841352	     -1.71484163	     34.98393540	     15.62419993	     87.21548519	      0.00000000	      0.00000000
      7.85833333	    -14.27233330	    -10.05724415	      4.10749340	     -0.36805254	      1.14239715	      0.04819758	     86.79140795	     -8.83831811	     -4.96385802	    115.40652276	      2.01422380	      6.14553104	     -4.85934116	      0.00000000	     51.52824876	    -11.63758009	     11.06726836	     43.27170086	      0.75523365	    -14.09289468	     -6.55965408	      0.00000000	    -42.54395564	     10.56425694	      9.01600434	     89.86727630	    -15.39276211	     39.55793804	     21.51872025	     87.60564483	      0.00000000	      0.00000000	     89.06872858	     -1.72436479	     35.37378493	     15.64052594	     87.00317658	      0.00000000	      0.00000000
      7.86666667	    -14.38811579	    -10.25298416	      4.19676514	     -0.36818945	      1.14267377	      0.04850730	     87.77023160	     -8.96965691	     -5.21610714	    115.14081850	      2.00958639	      6.42240145	     -5.21912114	      0.00000000	     51.21401125	    -11.99398019	     10.87587387	     43.70423240	      0.76278275	    -13.89650192	     -6.13247766	      0.00000000	    -42.47082044	     10.79051183	      9.05669817	     89.86650244	    -15.33963231	     39.17980577	     21.52343642	     87.75774762	      0.00000000	      0.00000000	     89.02140218	     -1.76832210	     35.05640168	     15.75198327	     87.19644163	      0.00000000	      0.00000000
      7.87500000	    -14.66205458	    -10.33130020	      4.28159615	     -0.36851758	      1.14259106	      0.04868523	     88.86370969	     -9.20870776	     -5.37488925	    114.68473651	      2.00162625	      6.54390889	     -5.44744196	      0.00000000	     51.20137873	    -12.13713141	     10.78604671	     44.42296695	      0.77532704	    -13.72500702	     -6.11990509	      0.00000000	    -42.20059787	     10.91341526	      9.03229713	     89.86992450	    -15.45923852	     39.67280739	     21.56623596	     87.50283399	      0.00000000	      0.00000000	     89.04303990	     -1.71831070	     35.33636065	     15.65225119	     86.82020473	      0.00000000	      0.00000000
      7.88333333	    -14.89047008	    -10.42496911	      4.28518343	     -0.36897277	      1.14277412	      0.04907426	     89.77661572	     -9.26900446	     -5.61692828	    113.99220704	      1.98953933	      6.53898868	     -6.00251990	      0.00000000	     51.23609910	    -12.38337061	     10.64668019	     45.28842941	      0.79043221	    -13.42522704	     -5.87552528	      0.00000000	    -42.02958051	     10.98093897	      9.05224569	     89.86782173	    -15.42186253	     39.15315024	     21.55654170	     87.69875364	      0.00000000	      0.00000000	     89.02656146	     -1.80292978	     35.22090982	     15.90371263	     87.14930761	      0.00000000	      0.00000000
      7.89166667	    -15.18006279	    -10.43883845	      4.28525558	     -0.36957575	      1.14282221	      0.04938265	     90.61106921	     -9.27507921	     -5.79953095	    113.12312330	      1.97437096	      6.58576228	     -6.79566260	      0.00000000	     51.43135086	    -12.48833672	     10.58752159	     46.36973814	      0.80930460	    -13.08870585	     -5.85830191	      0.00000000	    -41.78245307	     10.98059030	      9.03318827	     89.86810703	    -15.48591861	     39.13490510	     21.62427260	     87.72380143	      0.00000000	      0.00000000	     89.02842710	     -1.79562189	     35.07903964	     15.99966313	     87.17997523	      0.00000000	      0.00000000
      7.90000000	    -15.24882264	    -10.30278205	      4.30736499	     -0.36995459	      1.14313431	      0.04946198	     91.15293213	     -9.36066213	     -5.81818573	    112.08085097	      1.95617988	      6.30415607	     -6.99284495	      0.00000000	     51.46875187	    -12.47814282	     10.43787048	     47.66716200	      0.83194892	    -12.58813421	     -5.94425089	      0.00000000	    -41.75621711	     10.85863545	      8.93421251	     89.86969546	    -15.53588778	     39.05486793	     21.71553865	     87.71126105	      0.00000000	      0.00000000	     89.05112334	     -1.78002022	     34.94130484	     16.11226107	     87.18923002	      0.00000000	      0.00000000
      7.90833333	    -15.25060113	    -10.07769304	      4.33926305	     -0.37034061	      1.14343571	      0.04948961	     91.47807651	     -9.44023999	     -5.90816148	    111.00546425	      1.93741084	      6.30217149	     -7.38595196	      0.00000000	     51.57374416	    -12.37779173	     10.26227220	     49.22130323	      0.85907380	    -12.28967945	     -6.04606663	      0.00000000	    -41.79275601	     10.66075340	      8.76774544	     89.87023200	    -15.59955591	     38.95495169	     21.85022072	     87.66950381	      0.00000000	      0.00000000	     89.09089844	     -1.81261210	     34.87736172	     16.20487864	     87.15227902	      0.00000000	      0.00000000
      7.91666667	    -15.63746979	    -10.01162094	      4.15519657	     -0.37111665	      1.14310180	      0.04989466	     92.10647889	     -9.27973773	     -6.13238046	    109.60675410	      1.91299874	      5.67255806	     -8.25985590	      0.00000000	     52.23082506	    -12.44815319	     10.20635053	     50.95838020	      0.88939152	    -11.54079732	     -6.30655567	      0.00000000	    -41.43789421	     10.47836601	      8.76762614	     89.87133367	    -15.57127458	     38.92002910	     21.84128542	     87.73164855	      0.00000000	      0.00000000	     89.12132565	     -1.89113608	     34.81012637	     16.30416230	     87.31814677	      0.00000000	      0.00000000
